<svg width="1189" height="721" viewBox="0 0 1189 721" fill="none" xmlns="http://www.w3.org/2000/svg">
<path d="M185.9 1.5C287.731 1.5 370.3 84.0692 370.3 185.9V534.226C370.3 636.057 287.731 718.626 185.9 718.626C84.0692 718.626 1.5 636.057 1.5 534.226V185.9C1.5 84.0692 84.0692 1.5 185.9 1.5Z" stroke="white" stroke-width="3" stroke-miterlimit="10"/>
<path d="M97.5385 167.445H58.207V291.501H97.5385V167.445Z" fill="white"/>
<path d="M144.549 167.582H100.368V207.452H144.549V167.582Z" fill="white"/>
<path d="M148.05 167.717V207.183C176.875 207.318 200.177 230.89 200.043 259.715C200.043 282.748 184.687 303.087 162.462 309.553L161.654 312.651C160.711 316.287 160.173 320.059 160.038 323.696C159.768 332.586 162.058 341.476 166.638 349.153C216.206 338.647 247.995 290.021 237.489 240.453C228.599 198.158 191.287 167.717 148.05 167.582" fill="white"/>
<path d="M155.728 323.693C155.728 319.652 156.402 315.611 157.479 311.57H117.205C109.662 361.543 144.279 408.283 194.252 415.691C197.888 416.23 201.66 416.499 205.297 416.634L206.24 377.168C177.549 376.225 154.92 352.383 155.594 323.693" fill="white"/>
<path d="M249.612 377.035H210.28V585.681H249.612V377.035Z" fill="white"/>
<path d="M313.458 377.17H252.71V417.04H313.458V377.17Z" fill="white"/>
<path d="M296.35 461.221H252.17V501.091H296.35V461.221Z" fill="white"/>
<path d="M543.9 152.701C543.9 159.401 543.7 165.201 543.3 170.201C542.9 175.201 542.2 179.701 541.2 183.501C540.2 187.301 538.9 190.701 537.3 193.601C535.7 196.501 533.8 199.301 531.6 201.901C528.6 205.501 525.6 208.301 522.5 210.201C519.5 212.101 517.2 213.401 515.5 214.001C512.7 215.001 510 215.801 507.5 216.401C505 217.001 502.2 217.501 499 217.801C495.9 218.101 492.3 218.301 488.4 218.301H437.5V4.80078H490.4C501.1 4.80078 509.2 6.00077 514.7 8.40077C520.2 10.8008 524.8 13.9008 528.5 17.8008C531.5 21.2008 533.9 24.8008 535.6 28.5008C537.3 32.2008 538.5 35.9008 539.2 39.4008C539.9 42.9008 540.3 46.1008 540.4 48.8008C540.4 51.5008 540.6 53.6008 540.6 55.0008V60.4008C540.6 63.0008 540.3 66.0008 539.7 69.3008C539.1 72.6008 538.2 76.2008 537 80.0008C535.8 83.8008 534 87.4008 531.6 90.6008C529 94.0008 526.5 96.4008 524.2 97.9008C521.9 99.3008 519.9 100.301 518.3 100.901C516.1 101.901 514.1 102.501 512.4 102.701C510.7 102.901 508.7 103.001 506.5 103.001C508.1 103.001 510.8 103.301 514.7 103.801C518.5 104.301 522.5 106.001 526.5 108.801C531.7 112.201 536 117.301 539.2 123.901C542.4 130.601 544 140.101 544 152.601L543.9 152.701ZM514.5 60.5008V57.2008C514.5 55.2008 514.2 52.8008 513.7 50.1008C513.2 47.4008 512.4 44.6008 511.3 41.6008C510.2 38.7008 508.5 36.2008 506.3 34.2008C502.7 31.2008 498.3 29.5008 493.1 29.2008C488 28.9008 483.4 28.7008 479.3 28.7008H463.9V92.5008H488.5C490.6 92.5008 492.8 92.3008 495 91.9008C500.6 90.9008 505.3 88.1008 508.9 83.6008C512.5 79.1008 514.3 71.4008 514.3 60.5008H514.5ZM517.5 159.601V155.801C517.5 153.501 517.4 150.701 517.2 147.501C517 144.301 516.6 140.901 516 137.401C515.4 133.901 514.4 130.801 513 128.201C512.6 127.401 511.8 126.201 510.7 124.701C509.6 123.201 507.9 121.601 505.7 120.001C503.9 118.801 502.2 117.901 500.6 117.301C499 116.701 497.2 116.201 495.2 115.901C493.2 115.601 490.8 115.401 488.1 115.401H464.1V194.901H486.5C488.5 194.901 490.5 194.901 492.5 194.701C494.5 194.701 496.3 194.301 497.9 193.901C504.1 192.501 509 189.301 512.4 184.401C515.8 179.501 517.5 171.101 517.5 159.501V159.601Z" fill="white"/>
<path d="M673.6 108.501C673.6 115.001 673.4 121.301 673.1 127.401C672.8 133.601 672.5 139.801 672.3 146.301C672.3 149.501 672.3 152.701 672.1 155.801C672 158.901 671.8 162.101 671.6 165.301C671.2 169.101 670.7 173.101 670.2 177.201C669.7 181.301 668.9 185.401 667.8 189.301C666.7 193.201 665.1 197.001 663.1 200.601C661.1 204.201 658.6 207.401 655.5 210.001C652.1 213.001 647.5 215.601 641.7 217.901C636 220.101 628.2 221.201 618.6 221.201C609 221.201 614.6 221.201 611.3 221.001C608.1 220.901 604.4 220.301 600.4 219.301C596.4 218.301 592.3 216.601 588.2 214.301C584.1 212.001 580.4 208.501 577.2 203.901C576.2 202.701 575.1 201.001 574 198.801C572.9 196.601 571.8 193.801 570.8 190.301C569.2 184.501 568.2 175.601 567.9 163.801C567.6 152.001 567.4 138.401 567.4 122.801C567.4 107.201 567.4 103.501 567.6 93.9008C567.6 84.3008 567.9 74.7008 568.1 65.0008C568.5 52.7008 569.6 43.1008 571.3 36.3008C573 29.4008 575.8 23.6008 579.6 18.8008C582.8 14.6008 587.8 10.6008 594.6 6.90077C601.4 3.20077 610.8 1.30078 622.9 1.30078C635 1.30078 627.2 1.50078 630.9 1.80078C634.6 2.10078 638.7 3.00078 643 4.50078C647.3 6.00078 651.7 8.30078 656 11.5008C660.3 14.6008 663.9 19.1008 666.7 25.0008C669.5 30.6008 671.2 37.0008 671.8 44.0008C672.2 47.8008 672.6 52.6008 672.9 58.4008C673.2 64.1008 673.4 70.1008 673.5 76.4008C673.5 82.6008 673.5 88.6008 673.5 94.4008C673.4 100.101 673.3 104.801 673.3 108.501H673.6ZM646.3 108.501V86.3008C646.3 78.9008 646.2 71.5008 646 64.1008C646 59.9008 645.8 54.9008 645.5 49.1008C645.2 43.3008 643.9 38.5008 641.7 34.4008C640.5 32.2008 638.2 29.9008 634.9 27.4008C631.6 25.0008 627 23.8008 621.1 23.8008C615.2 23.8008 617.2 24.1008 614.3 24.6008C611.4 25.1008 608.4 26.6008 605.4 29.0008C600.2 33.0008 597.1 38.8008 596.2 46.2008C595.3 53.7008 594.8 63.6008 594.8 76.1008V121.801C594.8 132.101 594.8 142.401 595.1 152.601C595.1 160.301 595.1 166.501 595.4 171.301C595.6 176.101 596.2 180.301 597.2 183.701C597.8 185.301 598.6 187.001 599.5 188.801C600.4 190.601 601.8 192.301 603.6 193.901C605.4 195.501 607.6 196.801 610.3 197.801C612.9 198.801 616.2 199.301 620.3 199.301C624.4 199.301 628.9 198.301 632.7 196.301C636.5 194.301 639.4 191.201 641.2 186.901C643.4 182.301 644.7 175.701 645.1 167.201C645.5 158.701 645.8 148.601 646 136.701C646.2 132.101 646.3 127.401 646.3 122.601V108.201V108.501Z" fill="white"/>
<path d="M804.5 164.201C804.5 169.201 804.3 174.201 803.9 179.001C803.5 183.801 802.6 188.501 801.2 192.901C799.8 197.301 797.7 201.401 794.9 205.101C792.1 208.801 788.1 212.001 783.1 214.601C779.9 216.401 776.7 217.801 773.6 218.701C770.5 219.601 767.5 220.301 764.7 220.701C761.9 221.101 759.4 221.301 757.3 221.301H752.3C745.8 221.301 739 220.401 731.7 218.701C724.4 217.001 718.3 213.701 713.3 208.901C712.3 207.901 710.9 206.201 709.2 203.801C707.5 201.401 705.9 198.301 704.5 194.401C703.5 191.601 702.7 188.601 702.2 185.301C701.7 182.101 701.3 179.101 701.1 176.401C700.9 173.701 700.8 171.301 700.8 169.101V4.80078H727.7V169.601C727.7 176.101 728.5 181.201 730.1 185.001C731.7 189.001 733.9 191.901 736.6 193.601C739.3 195.301 741.4 196.401 742.8 196.801C744.2 197.201 745.6 197.601 747 197.901C748.4 198.201 750.5 198.401 753.3 198.401C757.3 198.401 760.9 197.901 764 197.001C767.1 196.101 770 193.901 772.6 190.501C773 189.901 773.6 189.001 774.4 187.801C775.2 186.601 775.8 185.001 776.2 183.001C776.6 180.801 776.9 177.301 777.1 172.601C777.3 167.901 777.4 162.601 777.4 156.701V4.90077H804.3V164.201H804.5Z" fill="white"/>
<path d="M898.2 218.301L856.5 33.3008L860.1 218.301H833.8V4.80078H870.4L913.6 191.701L910 4.80078H935.7V218.301H898.2Z" fill="white"/>
<path d="M1065.7 143.3V154.6C1065.7 158.3 1065.6 162.1 1065.4 165.9C1065.4 166.9 1065.4 169.3 1065.2 173.2C1065.1 177 1064.7 180.8 1064.1 184.4C1063.1 190 1061.7 194.8 1059.9 198.6C1058.1 202.4 1056 205.6 1053.7 208.1C1051.4 210.6 1049 212.6 1046.4 214.1C1043.9 215.6 1041.4 216.8 1039 217.6C1034 219.4 1029.2 220.5 1024.6 220.8C1020.1 221.1 1017 221.3 1015.4 221.3C1009.4 221.3 1003.7 220.7 998.5 219.5C993.3 218.3 988.1 215.8 983.1 211.9C982.1 210.9 980.6 209.5 978.7 207.8C976.8 206.1 974.9 203.8 973.1 201C971.1 198 969.5 194.7 968.3 191C967.1 187.4 966.2 183.2 965.6 178.6C965 174 964.6 168.8 964.4 163C964.2 157.3 964.1 150.7 964.1 143.2V91.0004C964.1 85.1004 964.1 79.1004 964.4 73.0004C964.4 69.0004 964.4 64.5004 964.7 59.7004C964.9 54.9004 965.4 50.0004 966.1 45.2004C966.8 40.4004 967.9 35.7004 969.3 31.1004C970.7 26.6004 972.8 22.5004 975.6 18.9004C978 15.7004 980.8 13.0004 984.1 10.7004C987.3 8.50039 990.8 6.7004 994.5 5.3004C998.2 3.9004 1002.1 2.9004 1006.1 2.3004C1010.1 1.7004 1014 1.40039 1017.6 1.40039C1027.3 1.40039 1034.9 3.0004 1040.6 6.1004C1046.2 9.2004 1050.5 12.2004 1053.3 15.0004C1057.3 19.2004 1060.2 24.5004 1061.9 30.9004C1063.6 37.2004 1064.5 46.3004 1064.5 58.0004V65.0004C1064.5 67.4004 1064.4 69.7004 1064.2 72.0004H1039.7V60.5004C1039.7 56.7004 1039.6 52.7004 1039.4 48.7004C1039.2 44.3004 1038.7 40.4004 1037.9 37.2004C1037.1 34.0004 1034.9 31.0004 1031.2 28.1004C1030 27.1004 1028.3 26.1004 1026.1 25.2004C1023.9 24.3004 1021.1 23.8004 1017.6 23.8004C1014.1 23.8004 1014 24.0004 1011.6 24.3004C1009.2 24.6004 1006.8 25.4004 1004.5 26.7004C1002.2 28.0004 1000 29.9004 998 32.4004C996 34.9004 994.5 38.3004 993.5 42.5004C992.1 48.5004 991.2 57.7004 990.9 70.0004C990.6 82.3004 990.4 96.5004 990.4 112.6C990.4 128.7 990.7 144.5 991.3 160.4C991.5 164.6 991.7 169.3 991.9 174.5C992.1 179.6 993.3 184.2 995.5 188.3C996.9 190.9 998.7 192.9 1000.8 194.3C1002.9 195.7 1005 196.8 1007.1 197.5C1009.2 198.2 1011.2 198.6 1013 198.7C1014.8 198.8 1016.1 198.9 1016.9 198.9C1018.1 198.9 1020.1 198.7 1022.8 198.3C1025.5 197.9 1028.3 196.6 1031.1 194.4C1033.5 192.6 1035.4 190.2 1036.7 187.3C1038 184.4 1039 181.3 1039.6 177.9C1040.2 174.6 1040.6 171.3 1040.7 168.1C1040.7 164.9 1040.9 161.9 1040.9 159V143.3H1065.7Z" fill="white"/>
<path d="M1092 218.301V4.80078H1186V28.7008H1118.6V92.5008H1177.6V116.401H1118.6V194.401H1188.1V218.301H1092Z" fill="white"/>
<path d="M461.2 289.299V337.199H505.4V354.599H461.2V432.899H440.8V271.199H512V289.299H461.2Z" fill="white"/>
<path d="M526.7 432.899V271.199H547.3V414.799H594.7V432.899H526.7Z" fill="white"/>
<path d="M640.9 367.399V432.899H620.1V367.399L585.7 271.199H607L631 351.999L655 271.199H676.3L640.8 367.399H640.9Z" fill="white"/>
<path d="M783.8 289.299V337.199H828V354.599H783.8V432.899H763.4V271.199H834.6V289.299H783.8Z" fill="white"/>
<path d="M849.3 432.899V271.199H869.9V414.799H917.3V432.899H849.3Z" fill="white"/>
<path d="M1009.2 349.799C1009.2 354.699 1009.1 359.499 1008.9 364.099C1008.7 368.799 1008.5 373.499 1008.3 378.399C1008.3 380.799 1008.3 383.199 1008.2 385.599C1008.2 387.999 1008 390.399 1007.9 392.799C1007.6 395.699 1007.2 398.699 1006.9 401.799C1006.5 404.899 1005.9 407.999 1005.1 410.999C1004.3 413.999 1003.1 416.799 1001.6 419.599C1000.1 422.299 998.2 424.699 995.9 426.699C993.3 428.999 989.8 430.999 985.5 432.699C981.1 434.399 975.3 435.199 968 435.199C960.7 435.199 964.9 435.199 962.5 435.099C960.1 435.099 957.3 434.599 954.3 433.799C951.2 432.999 948.2 431.799 945 429.999C941.9 428.199 939.1 425.599 936.6 422.099C935.8 421.199 935 419.899 934.2 418.199C933.4 416.499 932.6 414.399 931.8 411.799C930.6 407.399 929.9 400.699 929.6 391.799C929.4 382.899 929.3 372.499 929.3 360.799C929.3 349.099 929.3 346.199 929.4 338.899C929.4 331.699 929.6 324.399 929.7 316.999C930 307.699 930.8 300.399 932.1 295.199C933.4 289.999 935.5 285.599 938.4 281.899C940.8 278.699 944.6 275.699 949.7 272.899C954.8 270.099 962 268.699 971.1 268.699C980.2 268.699 974.3 268.799 977.2 268.999C980 269.199 983.1 269.899 986.4 271.099C989.7 272.199 993 273.999 996.2 276.399C999.5 278.799 1002.2 282.199 1004.3 286.599C1006.4 290.899 1007.7 295.699 1008.2 300.999C1008.5 303.899 1008.8 307.499 1009 311.899C1009.2 316.299 1009.4 320.799 1009.5 325.499C1009.5 330.199 1009.5 334.799 1009.5 339.099C1009.5 343.499 1009.4 346.999 1009.4 349.699L1009.2 349.799ZM988.6 349.799V332.999C988.6 327.399 988.6 321.799 988.4 316.199C988.4 312.999 988.3 309.199 988.1 304.899C987.9 300.499 986.9 296.799 985.2 293.799C984.3 292.099 982.6 290.399 980 288.499C977.4 286.599 974 285.799 969.6 285.799C965.2 285.799 966.7 285.999 964.4 286.399C962.2 286.799 959.9 287.899 957.6 289.699C953.6 292.799 951.3 297.099 950.6 302.799C949.9 308.499 949.6 315.999 949.6 325.499V360.099C949.6 367.899 949.6 375.699 949.8 383.499C949.8 389.299 949.8 393.999 950 397.699C950.2 401.399 950.6 404.499 951.4 407.099C951.9 408.299 952.4 409.599 953.1 410.999C953.8 412.399 954.8 413.699 956.2 414.899C957.6 416.099 959.3 417.099 961.2 417.899C963.2 418.699 965.7 418.999 968.8 418.999C971.9 418.999 975.3 418.199 978.2 416.699C981.1 415.199 983.2 412.799 984.6 409.599C986.3 406.099 987.3 401.099 987.6 394.699C987.9 388.299 988.1 380.599 988.3 371.599C988.5 368.099 988.5 364.499 988.5 360.999V350.099L988.6 349.799Z" fill="white"/>
<path d="M1088.6 432.899L1082.9 401.799H1045.3L1039.8 432.899H1019L1053.8 271.199H1074L1109.7 432.899H1088.6ZM1063.7 301.199L1048.8 384.299H1079.5L1063.7 301.199Z" fill="white"/>
<path d="M1153.5 289.299V432.899H1133.6V289.299H1102.9V271.199H1184.2V289.299H1153.5Z" fill="white"/>
<path d="M527.6 719.301L488.8 618.901H465.2V719.301H437V490.801H486.9C494.2 490.801 501.6 491.301 509.1 492.401C516.5 493.501 523.4 496.501 529.7 501.501C534.4 505.401 538.1 510.001 540.5 515.301C543 520.601 544.7 525.801 545.7 530.801C546.7 535.901 547.2 540.401 547.3 544.201C547.4 548.101 547.5 550.601 547.5 551.601C547.5 561.701 546.7 571.201 545.2 580.101C544.1 586.601 542.7 591.601 541 595.201C539.3 598.801 537.5 601.701 535.8 604.101C532.1 608.401 528.5 611.301 524.8 612.801C521.1 614.301 518.4 615.301 516.7 615.701L557.5 719.301H527.7H527.6ZM518.9 556.001C518.9 552.101 518.8 548.001 518.6 543.601C518.4 539.301 517.6 535.301 516.3 531.601C514.8 527.501 512.7 524.301 510 522.201C507.3 520.001 504.2 518.501 500.8 517.601C497.3 516.701 493.7 516.301 490 516.301H465.2V596.601H480.1C486.4 596.601 491.3 596.401 495 596.101C498.7 595.801 502 595.101 505 594.001C508.5 592.501 511.2 590.201 513.1 587.201C515 584.201 516.4 580.901 517.3 577.301C518.2 573.701 518.6 570.001 518.8 566.201C518.9 562.401 519 559.001 519 556.001H518.9Z" fill="white"/>
<path d="M578.4 719.301V490.801H679.1V516.401H606.9V584.701H670V610.301H606.9V693.801H681.4V719.401H578.5L578.4 719.301Z" fill="white"/>
<path d="M816.4 560.001C816.4 560.401 816.4 562.601 816.6 566.501C816.7 570.401 816.4 574.901 815.8 580.101C815.2 585.301 814 590.701 812.2 596.401C810.5 602.101 807.9 607.001 804.4 611.101C801.8 614.301 798.7 616.901 795 618.901C791.3 620.801 787.4 622.301 783.3 623.301C779.2 624.301 775.1 624.901 771 625.101C766.9 625.301 762.9 625.401 759 625.401H735V719.301H706.5V490.801H765.7C771.3 490.801 776.1 491.201 780.1 491.901C784.1 492.701 787.6 493.701 790.6 495.101C793.6 496.501 796.2 498.101 798.4 500.001C800.6 501.801 802.5 503.801 804.2 506.001C807.4 510.101 809.9 514.301 811.6 518.601C813.3 522.901 814.5 527.401 815.2 532.001C815.8 536.601 816.2 541.301 816.2 545.901V560.001H816.4ZM788.5 561.601V550.501C788.5 546.801 788.3 543.101 787.9 539.401C787.3 533.701 785.8 529.301 783.5 526.201C781.2 523.001 778.4 520.801 774.9 519.401C771.4 518.001 767.6 517.101 763.2 516.801C758.9 516.501 754.5 516.301 749.9 516.301H735V600.801H754.1C757.3 600.801 760.5 600.801 763.6 600.601C766.7 600.501 769.6 600.101 772.3 599.301C775 598.501 777.5 597.201 779.9 595.401C782.3 593.601 784.2 590.901 785.7 587.401C787 584.601 787.7 581.201 788 577.301C788.2 573.401 788.3 568.201 788.3 561.601H788.5Z" fill="white"/>
<path d="M841.6 719.301V490.801H942.3V516.401H870.1V584.701H933.2V610.301H870.1V693.801H944.6V719.401H841.7L841.6 719.301Z" fill="white"/>
<path d="M1052 719.301L1043.9 675.301H990.8L983 719.301H953.5L1002.7 490.801H1031.2L1081.7 719.301H1051.9H1052ZM1016.7 533.101L995.7 650.601H1039.1L1016.8 533.101H1016.7Z" fill="white"/>
<path d="M1143.6 516.299V719.299H1115.4V516.299H1072V490.699H1186.9V516.299H1143.5H1143.6Z" fill="white"/>
<path d="M707.3 367.7C715.529 367.7 722.2 361.029 722.2 352.8C722.2 344.571 715.529 337.9 707.3 337.9C699.071 337.9 692.4 344.571 692.4 352.8C692.4 361.029 699.071 367.7 707.3 367.7Z" fill="white"/>
</svg>
