<?xml version="1.0" encoding="UTF-8"?>
<svg id="Layer_1" data-name="Layer 1" xmlns="http://www.w3.org/2000/svg" viewBox="0 0 1221 301">
  <defs>
    <style>
      .cls-1 {
        stroke-miterlimit: 10;
      }

      .cls-1, .cls-2 {
        fill: none;
        stroke: #fff;
        stroke-width: 2.94px;
      }

      .cls-3 {
        fill: #fff;
      }
    </style>
  </defs>
  <path class="cls-1" d="M1070.51,1.47H150.47C68.18,1.47,1.47,68.18,1.47,150.47s66.71,149,149,149h920.04c82.29,0,149-66.71,149-149S1152.8,1.47,1070.51,1.47Z"/>
  <path class="cls-2" d="M1070.37,3.58H150.47C69.34,3.58,3.57,69.35,3.57,150.48s65.77,146.9,146.9,146.9h919.9c81.13,0,146.9-65.77,146.9-146.9S1151.5,3.58,1070.37,3.58Z"/>
  <path class="cls-3" d="M159.67,72.88h-26.57v83.77h26.57v-83.77Z"/>
  <path class="cls-3" d="M191.49,73.02h-29.85v26.83h29.85v-26.83Z"/>
  <path class="cls-3" d="M193.86,73.02v26.7c19.46,0,35.25,15.91,35.11,35.51,0,15.65-10.39,29.33-25.38,33.67l-.53,2.1c-.66,2.5-1.05,5-1.05,7.5-.13,6.05,1.45,11.97,4.47,17.23,33.54-7.1,54.97-39.85,47.87-73.38-6.05-28.67-31.17-49.18-60.5-49.18"/>
  <path class="cls-3" d="M198.99,178.35c0-2.76.53-5.52,1.18-8.15h-27.22c-5,33.8,18.28,65.36,52.08,70.36,2.5.39,5,.53,7.5.66l.66-26.7c-19.33-.66-34.72-16.7-34.19-36.17Z"/>
  <path class="cls-3" d="M304.99,72.88h-26.57v140.85h26.57V72.88Z"/>
  <path class="cls-3" d="M348.12,73.02h-41.03v26.83h41.03v-26.83Z"/>
  <path class="cls-3" d="M336.55,129.7h-29.85v26.83h29.85v-26.83Z"/>
  <path class="cls-3" d="M596.28,106.16h-26.3v111.65h26.3v-111.65Z"/>
  <path class="cls-3" d="M638.63,77.88h-110.99v26.7h110.99v-26.7Z"/>
  <path class="cls-3" d="M686.5,77.88h-26.3v87.45h26.3v-87.45Z"/>
  <path class="cls-3" d="M767.37,78.27h-26.3v87.06h26.3v-87.06Z"/>
  <path class="cls-3" d="M741.34,167.44c-2.1,15.25-16.04,25.91-31.3,23.8-12.36-1.71-22.23-11.44-23.8-23.8h-26.17c2.1,29.72,27.88,52.08,57.47,49.97,26.83-1.84,48.13-23.15,49.97-49.97h-26.17Z"/>
  <path class="cls-3" d="M824.98,77.88h-26.3v139.01h26.3V77.88Z"/>
  <path class="cls-3" d="M827.87,77.88v25.38c24.2,1.45,42.74,22.22,41.29,46.42-1.32,22.22-19.07,39.98-41.29,41.29v25.51h-8.42c2.5.26,5,.4,7.37.4,38.4.13,69.7-30.91,69.83-69.31.13-38.27-30.64-69.44-68.78-69.83"/>
  <path class="cls-3" d="M947.81,77.88h-26.3v139.01h26.3V77.88Z"/>
  <path class="cls-3" d="M1043.54,77.88c-38.53,0-69.7,31.17-69.7,69.7s31.17,69.7,69.7,69.7,69.7-31.17,69.7-69.7-31.16-69.7-69.7-69.7ZM1043.54,191.11c-23.93,0-43.39-19.46-43.39-43.4s19.46-43.4,43.39-43.4,43.4,19.46,43.4,43.4-19.46,43.4-43.4,43.4Z"/>
  <path class="cls-3" d="M526.18,179.14c-1.97-14.6-9.34-28.01-20.38-37.74l-20.25,17.75c15.78,11.18,19.46,33.01,8.29,48.79-3.55,5.13-8.55,9.07-14.2,11.71v.66l10.13,23.8c25.25-11.05,40.24-37.61,36.43-64.83"/>
  <path class="cls-3" d="M488.05,107.73c0-11.31,4.74-22.09,13.15-29.59h-27.88c-16.44,25.64-11.57,59.44,11.31,79.43l20.12-17.62c-10.39-7.5-16.57-19.46-16.57-32.35"/>
</svg>