<?xml version="1.0" encoding="UTF-8"?>
<svg id="Layer_1" data-name="Layer 1" xmlns="http://www.w3.org/2000/svg" viewBox="0 0 1330.64 356.43">
  <defs>
    <style>
      .cls-1 {
        fill: none;
        stroke: #fff;
        stroke-miterlimit: 10;
        stroke-width: 2.94px;
      }

      .cls-2 {
        fill: #fff;
      }
    </style>
  </defs>
  <path class="cls-1" d="M1149.7,10.79H167.49C79.64,10.79,8.42,82,8.42,169.86s71.22,159.07,159.07,159.07h982.21c87.85,0,159.07-71.22,159.07-159.07S1237.55,10.79,1149.7,10.79Z"/>
  <g>
    <path class="cls-2" d="M155.82,92.27h-26.57v83.77h26.57v-83.77Z"/>
    <path class="cls-2" d="M187.65,92.41h-29.85v26.83h29.85v-26.83Z"/>
    <path class="cls-2" d="M190.01,92.41v26.7c19.46,0,35.25,15.91,35.11,35.51,0,15.65-10.39,29.33-25.38,33.67l-.53,2.1c-.66,2.5-1.05,5-1.05,7.5-.13,6.05,1.45,11.97,4.47,17.23,33.54-7.1,54.97-39.85,47.87-73.38-6.05-28.67-31.17-49.18-60.5-49.18"/>
    <path class="cls-2" d="M195.14,197.74c0-2.76.53-5.52,1.18-8.15h-27.22c-5,33.8,18.28,65.36,52.08,70.36,2.5.39,5,.53,7.5.66l.66-26.7c-19.33-.66-34.72-16.7-34.19-36.17Z"/>
    <path class="cls-2" d="M301.14,92.27h-26.57v140.85h26.57V92.27Z"/>
    <path class="cls-2" d="M344.28,92.41h-41.03v26.83h41.03v-26.83Z"/>
    <path class="cls-2" d="M332.7,149.08h-29.85v26.83h29.85v-26.83Z"/>
    <path class="cls-2" d="M592.44,125.54h-26.3v111.65h26.3v-111.65Z"/>
    <path class="cls-2" d="M634.79,97.27h-110.99v26.7h110.99v-26.7Z"/>
    <path class="cls-2" d="M682.65,97.27h-26.3v87.45h26.3v-87.45Z"/>
    <path class="cls-2" d="M763.53,97.66h-26.3v87.06h26.3v-87.06Z"/>
    <path class="cls-2" d="M737.49,186.82c-2.1,15.25-16.04,25.91-31.3,23.8-12.36-1.71-22.23-11.44-23.8-23.8h-26.17c2.1,29.72,27.88,52.08,57.47,49.97,26.83-1.84,48.13-23.15,49.97-49.97h-26.17Z"/>
    <path class="cls-2" d="M821.13,97.27h-26.3v139.01h26.3V97.27Z"/>
    <path class="cls-2" d="M824.03,97.27v25.38c24.2,1.45,42.74,22.22,41.29,46.42-1.32,22.22-19.07,39.98-41.29,41.29v25.51h-8.42c2.5.26,5,.4,7.37.4,38.4.13,69.7-30.91,69.83-69.31.13-38.27-30.64-69.44-68.78-69.83"/>
    <path class="cls-2" d="M943.96,97.27h-26.3v139.01h26.3V97.27Z"/>
    <path class="cls-2" d="M1039.7,97.27c-38.53,0-69.7,31.17-69.7,69.7s31.17,69.7,69.7,69.7,69.7-31.17,69.7-69.7-31.16-69.7-69.7-69.7ZM1039.7,210.49c-23.93,0-43.39-19.46-43.39-43.4s19.46-43.4,43.39-43.4,43.4,19.46,43.4,43.4-19.46,43.4-43.4,43.4Z"/>
    <path class="cls-2" d="M522.34,198.52c-1.97-14.6-9.34-28.01-20.38-37.74l-20.25,17.75c15.78,11.18,19.46,33.01,8.29,48.79-3.55,5.13-8.55,9.07-14.2,11.71v.66l10.13,23.8c25.25-11.05,40.24-37.61,36.43-64.83"/>
    <path class="cls-2" d="M484.21,127.12c0-11.31,4.74-22.09,13.15-29.59h-27.88c-16.44,25.64-11.57,59.44,11.31,79.43l20.12-17.62c-10.39-7.5-16.57-19.46-16.57-32.35"/>
    <path class="cls-2" d="M1187.34,194.98c-1.97-14.6-9.34-28.01-20.38-37.74l-20.25,17.75c15.78,11.18,19.46,33.01,8.29,48.79-3.55,5.13-8.55,9.07-14.2,11.71v.66l10.13,23.8c25.25-11.05,40.24-37.61,36.43-64.83"/>
    <path class="cls-2" d="M1149.21,123.57c0-11.31,4.74-22.09,13.15-29.59h-27.88c-16.44,25.64-11.57,59.44,11.31,79.43l20.12-17.62c-10.39-7.5-16.57-19.46-16.57-32.35"/>
  </g>
</svg>