<?xml version="1.0" encoding="UTF-8"?>
<svg id="Layer_1" xmlns="http://www.w3.org/2000/svg" version="1.1" viewBox="0 0 1314.28 300.94">
  <!-- Generator: Adobe Illustrator 30.5.1, SVG Export Plug-In . SVG Version: 2.1.4 Build 3)  -->
  <defs>
    <style>
      .st0 {
        fill: none;
        stroke: #fff;
        stroke-miterlimit: 10;
        stroke-width: 2.94px;
      }

      .st1 {
        fill: #fff;
      }
    </style>
  </defs>
  <path class="st0" d="M1152.4,1.47H161.88C73.29,1.47,1.47,68.18,1.47,150.47s71.82,149,160.41,149h990.51c88.59,0,160.41-66.71,160.41-149S1240.99,1.47,1152.4,1.47Z"/>
  <g>
    <g>
      <path class="st1" d="M162.63,72.88h-26.57v83.77h26.57v-83.77h0Z"/>
      <path class="st1" d="M194.45,73.02h-29.85v26.83h29.85v-26.83Z"/>
      <path class="st1" d="M196.82,73.02v26.7c19.46,0,35.25,15.91,35.11,35.51,0,15.65-10.39,29.33-25.38,33.67l-.53,2.1c-.66,2.5-1.05,5-1.05,7.5-.13,6.05,1.45,11.97,4.47,17.23,33.54-7.1,54.97-39.85,47.87-73.38-6.05-28.67-31.17-49.18-60.5-49.18"/>
      <path class="st1" d="M201.95,178.35c0-2.76.53-5.52,1.18-8.15h-27.22c-5,33.8,18.28,65.36,52.08,70.36,2.5.39,5,.53,7.5.66l.66-26.7c-19.33-.66-34.72-16.7-34.19-36.17h0Z"/>
      <path class="st1" d="M307.95,72.88h-26.57v140.85h26.57V72.88Z"/>
      <path class="st1" d="M351.08,73.02h-41.03v26.83h41.03v-26.83Z"/>
      <path class="st1" d="M339.51,129.7h-29.85v26.83h29.85v-26.83Z"/>
    </g>
    <g>
      <path class="st1" d="M599.24,101.3h-26.3v111.65h26.3s0-111.65,0-111.65Z"/>
      <path class="st1" d="M641.59,73.02h-110.99v26.7h110.99v-26.7Z"/>
      <path class="st1" d="M689.46,73.02h-26.3v87.45h26.3s0-87.45,0-87.45Z"/>
      <path class="st1" d="M770.33,73.41h-26.3v87.06h26.3s0-87.06,0-87.06Z"/>
      <path class="st1" d="M744.3,162.58c-2.1,15.25-16.04,25.91-31.3,23.8-12.36-1.71-22.23-11.44-23.8-23.8h-26.17c2.1,29.72,27.88,52.08,57.47,49.97,26.83-1.84,48.13-23.15,49.97-49.97h-26.17Z"/>
      <path class="st1" d="M827.94,73.02h-26.3v139.01h26.3V73.02Z"/>
      <path class="st1" d="M830.83,73.02v25.38c24.2,1.45,42.74,22.22,41.29,46.42-1.32,22.22-19.07,39.98-41.29,41.29v25.51h-8.42c2.5.26,5,.4,7.37.4,38.4.13,69.7-30.91,69.83-69.31.13-38.27-30.64-69.44-68.78-69.83"/>
      <path class="st1" d="M950.77,73.02h-26.3v139.01h26.3V73.02Z"/>
      <path class="st1" d="M1046.5,73.02c-38.53,0-69.7,31.17-69.7,69.7s31.17,69.7,69.7,69.7,69.7-31.17,69.7-69.7-31.16-69.7-69.7-69.7ZM1046.5,186.25c-23.93,0-43.39-19.46-43.39-43.4s19.46-43.4,43.39-43.4,43.4,19.46,43.4,43.4-19.46,43.4-43.4,43.4h0Z"/>
      <path class="st1" d="M529.14,174.28c-1.97-14.6-9.34-28.01-20.38-37.74l-20.25,17.75c15.78,11.18,19.46,33.01,8.29,48.79-3.55,5.13-8.55,9.07-14.2,11.71v.66l10.13,23.8c25.25-11.05,40.24-37.61,36.43-64.83"/>
      <path class="st1" d="M491.01,102.87c0-11.31,4.74-22.09,13.15-29.59h-27.88c-16.44,25.64-11.57,59.44,11.31,79.43l20.12-17.62c-10.39-7.5-16.57-19.46-16.57-32.35"/>
      <path class="st1" d="M1188.12,174.48c-1.97-14.6-9.34-28.01-20.38-37.74l-20.25,17.75c15.78,11.18,19.46,33.01,8.29,48.79-3.55,5.13-8.55,9.07-14.2,11.71v.66l10.13,23.8c25.25-11.05,40.24-37.61,36.43-64.83"/>
      <path class="st1" d="M1149.99,103.07c0-11.31,4.74-22.09,13.15-29.59h-27.88c-16.44,25.64-11.57,59.44,11.31,79.43l20.12-17.62c-10.39-7.5-16.57-19.46-16.57-32.35"/>
    </g>
  </g>
</svg>
