<?xml version="1.0" encoding="UTF-8"?>
<svg id="Layer_1" data-name="Layer 1" xmlns="http://www.w3.org/2000/svg" viewBox="0 0 1188.1 1600.06">
  <defs>
    <style>
      .cls-1 {
        fill: none;
        stroke: #fff;
        stroke-miterlimit: 10;
        stroke-width: 3px;
      }

      .cls-2 {
        fill: #fff;
      }
    </style>
  </defs>
  <path class="cls-1" d="M185.9,1.5c101.83,0,184.4,82.57,184.4,184.4v348.33c0,101.83-82.57,184.4-184.4,184.4S1.5,636.06,1.5,534.23V185.9C1.5,84.07,84.07,1.5,185.9,1.5Z"/>
  <path class="cls-2" d="M97.54,167.45h-39.33v124.06h39.33v-124.06Z"/>
  <path class="cls-2" d="M144.55,167.58h-44.18v39.87h44.18v-39.87Z"/>
  <path class="cls-2" d="M148.05,167.72v39.47c28.82.13,52.13,23.71,51.99,52.53,0,23.03-15.36,43.37-37.58,49.84l-.81,3.1c-.94,3.64-1.48,7.41-1.62,11.05-.27,8.89,2.02,17.78,6.6,25.46,49.57-10.51,81.36-59.13,70.85-108.7-8.89-42.29-46.2-72.74-89.44-72.87"/>
  <path class="cls-2" d="M155.73,323.69c0-4.04.67-8.08,1.75-12.12h-40.27c-7.54,49.97,27.07,96.71,77.05,104.12,3.64.54,7.41.81,11.04.94l.94-39.47c-28.69-.94-51.32-24.79-50.65-53.48"/>
  <path class="cls-2" d="M249.61,377.04h-39.33v208.65h39.33v-208.65Z"/>
  <path class="cls-2" d="M313.46,377.17h-60.75v39.87h60.75v-39.87Z"/>
  <path class="cls-2" d="M296.35,461.22h-44.18v39.87h44.18v-39.87Z"/>
  <path class="cls-2" d="M543.9,152.7c0,6.7-.2,12.5-.6,17.5-.4,5-1.1,9.5-2.1,13.3-1,3.8-2.3,7.2-3.9,10.1-1.6,2.9-3.5,5.7-5.7,8.3-3,3.6-6,6.4-9.1,8.3-3,1.9-5.3,3.2-7,3.8-2.8,1-5.5,1.8-8,2.4s-5.3,1.1-8.5,1.4c-3.1.3-6.7.5-10.6.5h-50.9V4.8h52.9c10.7,0,18.8,1.2,24.3,3.6,5.5,2.4,10.1,5.5,13.8,9.4,3,3.4,5.4,7,7.1,10.7,1.7,3.7,2.9,7.4,3.6,10.9s1.1,6.7,1.2,9.4c0,2.7.2,4.8.2,6.2v5.4c0,2.6-.3,5.6-.9,8.9-.6,3.3-1.5,6.9-2.7,10.7-1.2,3.8-3,7.4-5.4,10.6-2.6,3.4-5.1,5.8-7.4,7.3-2.3,1.4-4.3,2.4-5.9,3-2.2,1-4.2,1.6-5.9,1.8-1.7.2-3.7.3-5.9.3,1.6,0,4.3.3,8.2.8,3.8.5,7.8,2.2,11.8,5,5.2,3.4,9.5,8.5,12.7,15.1,3.2,6.7,4.8,16.2,4.8,28.7l-.1.1ZM514.5,60.5v-3.3c0-2-.3-4.4-.8-7.1s-1.3-5.5-2.4-8.5c-1.1-2.9-2.8-5.4-5-7.4-3.6-3-8-4.7-13.2-5-5.1-.3-9.7-.5-13.8-.5h-15.4v63.8h24.6c2.1,0,4.3-.2,6.5-.6,5.6-1,10.3-3.8,13.9-8.3s5.4-12.2,5.4-23.1h.2ZM517.5,159.6v-3.8c0-2.3-.1-5.1-.3-8.3-.2-3.2-.6-6.6-1.2-10.1s-1.6-6.6-3-9.2c-.4-.8-1.2-2-2.3-3.5-1.1-1.5-2.8-3.1-5-4.7-1.8-1.2-3.5-2.1-5.1-2.7-1.6-.6-3.4-1.1-5.4-1.4-2-.3-4.4-.5-7.1-.5h-24v79.5h22.4c2,0,4,0,6-.2,2,0,3.8-.4,5.4-.8,6.2-1.4,11.1-4.6,14.5-9.5,3.4-4.9,5.1-13.3,5.1-24.9v.1Z"/>
  <path class="cls-2" d="M673.6,108.5c0,6.5-.2,12.8-.5,18.9-.3,6.2-.6,12.4-.8,18.9,0,3.2,0,6.4-.2,9.5-.1,3.1-.3,6.3-.5,9.5-.4,3.8-.9,7.8-1.4,11.9-.5,4.1-1.3,8.2-2.4,12.1-1.1,3.9-2.7,7.7-4.7,11.3-2,3.6-4.5,6.8-7.6,9.4-3.4,3-8,5.6-13.8,7.9-5.7,2.2-13.5,3.3-23.1,3.3s-4,0-7.3-.2c-3.2-.1-6.9-.7-10.9-1.7s-8.1-2.7-12.2-5c-4.1-2.3-7.8-5.8-11-10.4-1-1.2-2.1-2.9-3.2-5.1-1.1-2.2-2.2-5-3.2-8.5-1.6-5.8-2.6-14.7-2.9-26.5-.3-11.8-.5-25.4-.5-41s0-19.3.2-28.9c0-9.6.3-19.2.5-28.9.4-12.3,1.5-21.9,3.2-28.7,1.7-6.9,4.5-12.7,8.3-17.5,3.2-4.2,8.2-8.2,15-11.9,6.8-3.7,16.2-5.6,28.3-5.6s4.3.2,8,.5c3.7.3,7.8,1.2,12.1,2.7s8.7,3.8,13,7c4.3,3.1,7.9,7.6,10.7,13.5,2.8,5.6,4.5,12,5.1,19,.4,3.8.8,8.6,1.1,14.4.3,5.7.5,11.7.6,18v18c-.1,5.7-.2,10.4-.2,14.1h.3ZM646.3,108.5v-22.2c0-7.4-.1-14.8-.3-22.2,0-4.2-.2-9.2-.5-15s-1.6-10.6-3.8-14.7c-1.2-2.2-3.5-4.5-6.8-7-3.3-2.4-7.9-3.6-13.8-3.6s-3.9.3-6.8.8c-2.9.5-5.9,2-8.9,4.4-5.2,4-8.3,9.8-9.2,17.2-.9,7.5-1.4,17.4-1.4,29.9v45.7c0,10.3,0,20.6.3,30.8,0,7.7,0,13.9.3,18.7.2,4.8.8,9,1.8,12.4.6,1.6,1.4,3.3,2.3,5.1.9,1.8,2.3,3.5,4.1,5.1,1.8,1.6,4,2.9,6.7,3.9,2.6,1,5.9,1.5,10,1.5s8.6-1,12.4-3,6.7-5.1,8.5-9.4c2.2-4.6,3.5-11.2,3.9-19.7.4-8.5.7-18.6.9-30.5.2-4.6.3-9.3.3-14.1v-14.4.3Z"/>
  <path class="cls-2" d="M804.5,164.2c0,5-.2,10-.6,14.8-.4,4.8-1.3,9.5-2.7,13.9-1.4,4.4-3.5,8.5-6.3,12.2-2.8,3.7-6.8,6.9-11.8,9.5-3.2,1.8-6.4,3.2-9.5,4.1-3.1.9-6.1,1.6-8.9,2-2.8.4-5.3.6-7.4.6h-5c-6.5,0-13.3-.9-20.6-2.6s-13.4-5-18.4-9.8c-1-1-2.4-2.7-4.1-5.1-1.7-2.4-3.3-5.5-4.7-9.4-1-2.8-1.8-5.8-2.3-9.1-.5-3.2-.9-6.2-1.1-8.9-.2-2.7-.3-5.1-.3-7.3V4.8h26.9v164.8c0,6.5.8,11.6,2.4,15.4,1.6,4,3.8,6.9,6.5,8.6,2.7,1.7,4.8,2.8,6.2,3.2,1.4.4,2.8.8,4.2,1.1s3.5.5,6.3.5c4,0,7.6-.5,10.7-1.4,3.1-.9,6-3.1,8.6-6.5.4-.6,1-1.5,1.8-2.7.8-1.2,1.4-2.8,1.8-4.8.4-2.2.7-5.7.9-10.4.2-4.7.3-10,.3-15.9V4.9h26.9v159.3h.2Z"/>
  <path class="cls-2" d="M898.2,218.3l-41.7-185,3.6,185h-26.3V4.8h36.6l43.2,186.9-3.6-186.9h25.7v213.5h-37.5Z"/>
  <path class="cls-2" d="M1065.7,143.3v11.3c0,3.7-.1,7.5-.3,11.3,0,1,0,3.4-.2,7.3-.1,3.8-.5,7.6-1.1,11.2-1,5.6-2.4,10.4-4.2,14.2-1.8,3.8-3.9,7-6.2,9.5-2.3,2.5-4.7,4.5-7.3,6-2.5,1.5-5,2.7-7.4,3.5-5,1.8-9.8,2.9-14.4,3.2-4.5.3-7.6.5-9.2.5-6,0-11.7-.6-16.9-1.8s-10.4-3.7-15.4-7.6c-1-1-2.5-2.4-4.4-4.1-1.9-1.7-3.8-4-5.6-6.8-2-3-3.6-6.3-4.8-10-1.2-3.6-2.1-7.8-2.7-12.4-.6-4.6-1-9.8-1.2-15.6-.2-5.7-.3-12.3-.3-19.8v-52.2c0-5.9,0-11.9.3-18,0-4,0-8.5.3-13.3.2-4.8.7-9.7,1.4-14.5.7-4.8,1.8-9.5,3.2-14.1,1.4-4.5,3.5-8.6,6.3-12.2,2.4-3.2,5.2-5.9,8.5-8.2,3.2-2.2,6.7-4,10.4-5.4,3.7-1.4,7.6-2.4,11.6-3,4-.6,7.9-.9,11.5-.9,9.7,0,17.3,1.6,23,4.7,5.6,3.1,9.9,6.1,12.7,8.9,4,4.2,6.9,9.5,8.6,15.9,1.7,6.3,2.6,15.4,2.6,27.1v7c0,2.4-.1,4.7-.3,7h-24.5v-11.5c0-3.8-.1-7.8-.3-11.8-.2-4.4-.7-8.3-1.5-11.5-.8-3.2-3-6.2-6.7-9.1-1.2-1-2.9-2-5.1-2.9-2.2-.9-5-1.4-8.5-1.4s-3.6.2-6,.5c-2.4.3-4.8,1.1-7.1,2.4-2.3,1.3-4.5,3.2-6.5,5.7-2,2.5-3.5,5.9-4.5,10.1-1.4,6-2.3,15.2-2.6,27.5-.3,12.3-.5,26.5-.5,42.6s.3,31.9.9,47.8c.2,4.2.4,8.9.6,14.1.2,5.1,1.4,9.7,3.6,13.8,1.4,2.6,3.2,4.6,5.3,6,2.1,1.4,4.2,2.5,6.3,3.2,2.1.7,4.1,1.1,5.9,1.2,1.8.1,3.1.2,3.9.2,1.2,0,3.2-.2,5.9-.6,2.7-.4,5.5-1.7,8.3-3.9,2.4-1.8,4.3-4.2,5.6-7.1,1.3-2.9,2.3-6,2.9-9.4.6-3.3,1-6.6,1.1-9.8,0-3.2.2-6.2.2-9.1v-15.7h24.8Z"/>
  <path class="cls-2" d="M1092,218.3V4.8h94v23.9h-67.4v63.8h59v23.9h-59v78h69.5v23.9h-96.1Z"/>
  <path class="cls-2" d="M461.2,289.3v47.9h44.2v17.4h-44.2v78.3h-20.4v-161.7h71.2v18.1h-50.8Z"/>
  <path class="cls-2" d="M526.7,432.9v-161.7h20.6v143.6h47.4v18.1h-68Z"/>
  <path class="cls-2" d="M640.9,367.4v65.5h-20.8v-65.5l-34.4-96.2h21.3l24,80.8,24-80.8h21.3l-35.5,96.2h.1Z"/>
  <path class="cls-2" d="M783.8,289.3v47.9h44.2v17.4h-44.2v78.3h-20.4v-161.7h71.2v18.1h-50.8Z"/>
  <path class="cls-2" d="M849.3,432.9v-161.7h20.6v143.6h47.4v18.1h-68Z"/>
  <path class="cls-2" d="M1009.2,349.8c0,4.9-.1,9.7-.3,14.3-.2,4.7-.4,9.4-.6,14.3,0,2.4,0,4.8-.1,7.2,0,2.4-.2,4.8-.3,7.2-.3,2.9-.7,5.9-1,9-.4,3.1-1,6.2-1.8,9.2-.8,3-2,5.8-3.5,8.6-1.5,2.7-3.4,5.1-5.7,7.1-2.6,2.3-6.1,4.3-10.4,6-4.4,1.7-10.2,2.5-17.5,2.5s-3.1,0-5.5-.1c-2.4,0-5.2-.5-8.2-1.3-3.1-.8-6.1-2-9.3-3.8-3.1-1.8-5.9-4.4-8.4-7.9-.8-.9-1.6-2.2-2.4-3.9-.8-1.7-1.6-3.8-2.4-6.4-1.2-4.4-1.9-11.1-2.2-20-.2-8.9-.3-19.3-.3-31s0-14.6.1-21.9c0-7.2.2-14.5.3-21.9.3-9.3,1.1-16.6,2.4-21.8,1.3-5.2,3.4-9.6,6.3-13.3,2.4-3.2,6.2-6.2,11.3-9,5.1-2.8,12.3-4.2,21.4-4.2s3.2.1,6.1.3c2.8.2,5.9.9,9.2,2.1,3.3,1.1,6.6,2.9,9.8,5.3,3.3,2.4,6,5.8,8.1,10.2,2.1,4.3,3.4,9.1,3.9,14.4.3,2.9.6,6.5.8,10.9.2,4.4.4,8.9.5,13.6v13.6c0,4.4-.1,7.9-.1,10.6l-.2.1ZM988.6,349.8v-16.8c0-5.6,0-11.2-.2-16.8,0-3.2-.1-7-.3-11.3-.2-4.4-1.2-8.1-2.9-11.1-.9-1.7-2.6-3.4-5.2-5.3s-6-2.7-10.4-2.7-2.9.2-5.2.6c-2.2.4-4.5,1.5-6.8,3.3-4,3.1-6.3,7.4-7,13.1-.7,5.7-1,13.2-1,22.7v34.6c0,7.8,0,15.6.2,23.4,0,5.8,0,10.5.2,14.2.2,3.7.6,6.8,1.4,9.4.5,1.2,1,2.5,1.7,3.9.7,1.4,1.7,2.7,3.1,3.9,1.4,1.2,3.1,2.2,5,3,2,.8,4.5,1.1,7.6,1.1s6.5-.8,9.4-2.3c2.9-1.5,5-3.9,6.4-7.1,1.7-3.5,2.7-8.5,3-14.9.3-6.4.5-14.1.7-23.1.2-3.5.2-7.1.2-10.6v-10.9l.1-.3Z"/>
  <path class="cls-2" d="M1088.6,432.9l-5.7-31.1h-37.6l-5.5,31.1h-20.8l34.8-161.7h20.2l35.7,161.7h-21.1ZM1063.7,301.2l-14.9,83.1h30.7l-15.8-83.1Z"/>
  <path class="cls-2" d="M1153.5,289.3v143.6h-19.9v-143.6h-30.7v-18.1h81.3v18.1h-30.7Z"/>
  <path class="cls-2" d="M527.6,719.3l-38.8-100.4h-23.6v100.4h-28.2v-228.5h49.9c7.3,0,14.7.5,22.2,1.6,7.4,1.1,14.3,4.1,20.6,9.1,4.7,3.9,8.4,8.5,10.8,13.8,2.5,5.3,4.2,10.5,5.2,15.5,1,5.1,1.5,9.6,1.6,13.4.1,3.9.2,6.4.2,7.4,0,10.1-.8,19.6-2.3,28.5-1.1,6.5-2.5,11.5-4.2,15.1-1.7,3.6-3.5,6.5-5.2,8.9-3.7,4.3-7.3,7.2-11,8.7s-6.4,2.5-8.1,2.9l40.8,103.6h-29.9ZM518.9,556c0-3.9-.1-8-.3-12.4-.2-4.3-1-8.3-2.3-12-1.5-4.1-3.6-7.3-6.3-9.4-2.7-2.2-5.8-3.7-9.2-4.6-3.5-.9-7.1-1.3-10.8-1.3h-24.8v80.3h14.9c6.3,0,11.2-.2,14.9-.5s7-1,10-2.1c3.5-1.5,6.2-3.8,8.1-6.8,1.9-3,3.3-6.3,4.2-9.9.9-3.6,1.3-7.3,1.5-11.1.1-3.8.2-7.2.2-10.2h-.1Z"/>
  <path class="cls-2" d="M578.4,719.3v-228.5h100.7v25.6h-72.2v68.3h63.1v25.6h-63.1v83.5h74.5v25.6h-102.9l-.1-.1Z"/>
  <path class="cls-2" d="M816.4,560c0,.4,0,2.6.2,6.5.1,3.9-.2,8.4-.8,13.6-.6,5.2-1.8,10.6-3.6,16.3-1.7,5.7-4.3,10.6-7.8,14.7-2.6,3.2-5.7,5.8-9.4,7.8-3.7,1.9-7.6,3.4-11.7,4.4-4.1,1-8.2,1.6-12.3,1.8s-8.1.3-12,.3h-24v93.9h-28.5v-228.5h59.2c5.6,0,10.4.4,14.4,1.1,4,.8,7.5,1.8,10.5,3.2,3,1.4,5.6,3,7.8,4.9,2.2,1.8,4.1,3.8,5.8,6,3.2,4.1,5.7,8.3,7.4,12.6,1.7,4.3,2.9,8.8,3.6,13.4.6,4.6,1,9.3,1,13.9v14.1h.2ZM788.5,561.6v-11.1c0-3.7-.2-7.4-.6-11.1-.6-5.7-2.1-10.1-4.4-13.2-2.3-3.2-5.1-5.4-8.6-6.8s-7.3-2.3-11.7-2.6c-4.3-.3-8.7-.5-13.3-.5h-14.9v84.5h19.1c3.2,0,6.4,0,9.5-.2,3.1-.1,6-.5,8.7-1.3,2.7-.8,5.2-2.1,7.6-3.9,2.4-1.8,4.3-4.5,5.8-8,1.3-2.8,2-6.2,2.3-10.1.2-3.9.3-9.1.3-15.7h.2Z"/>
  <path class="cls-2" d="M841.6,719.3v-228.5h100.7v25.6h-72.2v68.3h63.1v25.6h-63.1v83.5h74.5v25.6h-102.9l-.1-.1Z"/>
  <path class="cls-2" d="M1052,719.3l-8.1-44h-53.1l-7.8,44h-29.5l49.2-228.5h28.5l50.5,228.5h-29.8.1ZM1016.7,533.1l-21,117.5h43.4l-22.3-117.5h-.1Z"/>
  <path class="cls-2" d="M1143.6,516.3v203h-28.2v-203h-43.4v-25.6h114.9v25.6h-43.4.1Z"/>
  <path class="cls-2" d="M707.3,367.7c8.23,0,14.9-6.67,14.9-14.9s-6.67-14.9-14.9-14.9-14.9,6.67-14.9,14.9,6.67,14.9,14.9,14.9Z"/>
  <g>
    <path class="cls-1" d="M269.5,881.44c101.83,0,184.4,82.57,184.4,184.4v348.33c0,101.83-82.57,184.4-184.4,184.4s-184.4-82.57-184.4-184.4v-348.33c0-101.83,82.57-184.4,184.4-184.4Z"/>
    <path class="cls-2" d="M181.14,1047.38h-39.33v124.06h39.33v-124.06Z"/>
    <path class="cls-2" d="M228.15,1047.52h-44.18v39.87h44.18v-39.87Z"/>
    <path class="cls-2" d="M231.65,1047.65v39.47c28.82.13,52.13,23.71,51.99,52.53,0,23.03-15.36,43.37-37.58,49.84l-.81,3.1c-.94,3.64-1.48,7.41-1.62,11.05-.27,8.89,2.02,17.78,6.6,25.46,49.57-10.51,81.36-59.13,70.85-108.7-8.89-42.29-46.2-72.74-89.44-72.87"/>
    <path class="cls-2" d="M239.33,1203.63c0-4.04.67-8.08,1.75-12.12h-40.27c-7.54,49.97,27.07,96.71,77.05,104.12,3.64.54,7.41.81,11.04.94l.94-39.47c-28.69-.94-51.32-24.79-50.65-53.48"/>
    <path class="cls-2" d="M333.21,1256.97h-39.33v208.65h39.33v-208.65Z"/>
    <path class="cls-2" d="M397.06,1257.11h-60.75v39.87h60.75v-39.87Z"/>
    <path class="cls-2" d="M379.95,1341.16h-44.18v39.87h44.18v-39.87Z"/>
  </g>
</svg>