<svg width="1221" height="301" viewBox="0 0 1221 301" fill="none" xmlns="http://www.w3.org/2000/svg">
<path d="M1070.51 1.46875H150.47C68.1793 1.46875 1.46973 68.1783 1.46973 150.469C1.46973 232.759 68.1793 299.469 150.47 299.469H1070.51C1152.8 299.469 1219.51 232.759 1219.51 150.469C1219.51 68.1783 1152.8 1.46875 1070.51 1.46875Z" stroke="white" stroke-width="2.93928" stroke-miterlimit="10"/>
<path d="M1070.37 3.58203H150.467C69.3388 3.58203 3.57129 69.3495 3.57129 150.478C3.57129 231.606 69.3388 297.374 150.467 297.374H1070.37C1151.5 297.374 1217.27 231.606 1217.27 150.478C1217.27 69.3495 1151.5 3.58203 1070.37 3.58203Z" stroke="white" stroke-width="2.93928"/>
<path d="M159.669 72.8848H133.104V156.656H159.669V72.8848Z" fill="white"/>
<path d="M191.495 73.0215H161.643V99.8494H191.495V73.0215Z" fill="white"/>
<path d="M193.859 73.0215V99.7179C213.323 99.7179 229.104 115.63 228.972 135.225C228.972 150.875 218.583 164.552 203.591 168.892L203.065 170.996C202.407 173.495 202.013 175.993 202.013 178.492C201.881 184.541 203.46 190.459 206.484 195.72C240.019 188.618 261.455 155.872 254.354 122.337C248.304 93.6684 223.186 73.153 193.859 73.153" fill="white"/>
<path d="M198.988 178.355C198.988 175.593 199.515 172.831 200.172 170.201H172.95C167.952 203.999 191.229 235.561 225.027 240.559C227.526 240.953 230.025 241.085 232.523 241.216L233.181 214.52C213.849 213.862 198.462 197.818 198.988 178.355Z" fill="white"/>
<path d="M304.987 72.8848H278.422V213.731H304.987V72.8848Z" fill="white"/>
<path d="M348.122 73.0215H307.091V99.8494H348.122V73.0215Z" fill="white"/>
<path d="M336.548 129.695H306.695V156.523H336.548V129.695Z" fill="white"/>
<path d="M596.281 106.158H569.979V217.81H596.281V106.158Z" fill="white"/>
<path d="M638.63 77.8789H527.636V104.575H638.63V77.8789Z" fill="white"/>
<path d="M686.498 77.8789H660.196V165.333H686.498V77.8789Z" fill="white"/>
<path d="M767.374 78.2695H741.072V165.329H767.374V78.2695Z" fill="white"/>
<path d="M741.337 167.436C739.233 182.691 725.293 193.343 710.038 191.239C697.676 189.529 687.813 179.797 686.235 167.436H660.064C662.169 197.157 687.944 219.513 717.534 217.409C744.362 215.568 765.666 194.263 767.508 167.436H741.337Z" fill="white"/>
<path d="M824.978 77.8789H798.676V216.884H824.978V77.8789Z" fill="white"/>
<path d="M827.874 77.8835V103.265C852.071 104.711 870.614 125.49 869.168 149.688C867.852 171.913 850.099 189.666 827.874 190.981V216.494H819.457C821.956 216.757 824.454 216.889 826.822 216.889C865.222 217.02 896.521 185.984 896.653 147.583C896.784 109.314 866.011 78.1465 827.874 77.752" fill="white"/>
<path d="M947.807 77.8789H921.505V216.884H947.807V77.8789Z" fill="white"/>
<path d="M1043.54 77.8789C1005.01 77.8789 973.844 109.047 973.844 147.579C973.844 186.111 1005.01 217.279 1043.54 217.279C1082.08 217.279 1113.24 186.111 1113.24 147.579C1113.24 109.047 1082.08 77.8789 1043.54 77.8789ZM1043.54 191.108C1019.61 191.108 1000.15 171.645 1000.15 147.71C1000.15 123.776 1019.61 104.312 1043.54 104.312C1067.48 104.312 1086.94 123.776 1086.94 147.71C1086.94 171.645 1067.48 191.108 1043.54 191.108Z" fill="white"/>
<path d="M526.185 179.138C524.212 164.54 516.848 151.126 505.801 141.395L485.549 159.148C501.33 170.327 505.012 192.157 493.834 207.938C490.283 213.067 485.286 217.012 479.631 219.643V220.3L489.757 244.103C515.007 233.056 529.999 206.492 526.185 179.269" fill="white"/>
<path d="M488.054 107.732C488.054 96.4224 492.789 85.6386 501.205 78.1426H473.325C456.886 103.787 461.752 137.585 484.635 157.574L504.756 139.952C494.367 132.456 488.186 120.489 488.186 107.601" fill="white"/>
</svg>
