<?xml version="1.0" encoding="UTF-8"?><svg id="Layer_1" xmlns="http://www.w3.org/2000/svg" viewBox="0 0 1118.1 1085.8"><defs><style>.cls-1{fill:#fff;}</style></defs><path class="cls-1" d="M290.4,335.2c0,6.7-.2,12.5-.6,17.5-.4,5-1.1,9.5-2.1,13.3-1,3.8-2.3,7.2-3.9,10.1-1.6,2.9-3.5,5.7-5.7,8.3-3,3.6-6,6.4-9.1,8.3-3,1.9-5.3,3.2-7,3.8-2.8,1-5.5,1.8-8,2.4-2.5.6-5.3,1.1-8.5,1.4-3.1.3-6.7.5-10.6.5h-50.9v-213.5h52.9c10.7,0,18.8,1.2,24.3,3.6,5.5,2.4,10.1,5.5,13.8,9.4,3,3.4,5.4,7,7.1,10.7,1.7,3.7,2.9,7.4,3.6,10.9.7,3.5,1.1,6.7,1.2,9.4,0,2.7.2,4.8.2,6.2v5.4c0,2.6-.3,5.6-.9,8.9-.6,3.3-1.5,6.9-2.7,10.7-1.2,3.8-3,7.4-5.4,10.6-2.6,3.4-5.1,5.8-7.4,7.3-2.3,1.4-4.3,2.4-5.9,3-2.2,1-4.2,1.6-5.9,1.8-1.7.2-3.7.3-5.9.3,1.6,0,4.3.3,8.2.8,3.8.5,7.8,2.2,11.8,5,5.2,3.4,9.5,8.5,12.7,15.1,3.2,6.7,4.8,16.2,4.8,28.7ZM261,243v-3.3c0-2-.3-4.4-.8-7.1-.5-2.7-1.3-5.5-2.4-8.5-1.1-2.9-2.8-5.4-5-7.4-3.6-3-8-4.7-13.2-5-5.1-.3-9.7-.5-13.8-.5h-15.4v63.8h24.6c2.1,0,4.3-.2,6.5-.6,5.6-1,10.3-3.8,13.9-8.3,3.6-4.5,5.4-12.2,5.4-23.1ZM264,342.1v-3.8c0-2.3-.1-5.1-.3-8.3-.2-3.2-.6-6.6-1.2-10.1-.6-3.5-1.6-6.6-3-9.2-.4-.8-1.2-2-2.3-3.5-1.1-1.5-2.8-3.1-5-4.7-1.8-1.2-3.5-2.1-5.1-2.7-1.6-.6-3.4-1.1-5.4-1.4-2-.3-4.4-.5-7.1-.5h-24v79.5h22.4c2,0,4,0,6-.2,2,0,3.8-.4,5.4-.8,6.2-1.4,11.1-4.6,14.5-9.5,3.4-4.9,5.1-13.3,5.1-24.9Z"/><path class="cls-1" d="M420.1,291c0,6.5-.2,12.8-.5,18.9-.3,6.2-.6,12.4-.8,18.9,0,3.2,0,6.4-.2,9.5-.1,3.1-.3,6.3-.5,9.5-.4,3.8-.9,7.8-1.4,11.9-.5,4.1-1.3,8.2-2.4,12.1-1.1,3.9-2.7,7.7-4.7,11.3-2,3.6-4.5,6.8-7.6,9.4-3.4,3-8,5.6-13.8,7.9-5.7,2.2-13.5,3.3-23.1,3.3s-4,0-7.3-.2c-3.2-.1-6.9-.7-10.9-1.7-4-1-8.1-2.7-12.2-5-4.1-2.3-7.8-5.8-11-10.4-1-1.2-2.1-2.9-3.2-5.1-1.1-2.2-2.2-5-3.2-8.5-1.6-5.8-2.6-14.7-2.9-26.5-.3-11.8-.5-25.4-.5-41s0-19.3.2-28.9c0-9.6.3-19.2.5-28.9.4-12.3,1.5-21.9,3.2-28.7,1.7-6.9,4.5-12.7,8.3-17.5,3.2-4.2,8.2-8.2,15-11.9,6.8-3.7,16.2-5.6,28.3-5.6s4.3.2,8,.5c3.7.3,7.8,1.2,12.1,2.7,4.3,1.5,8.7,3.8,13,7,4.3,3.1,7.9,7.6,10.7,13.5,2.8,5.6,4.5,12,5.1,19,.4,3.8.8,8.6,1.1,14.4.3,5.7.5,11.7.6,18,0,6.2,0,12.2,0,18-.1,5.7-.2,10.4-.2,14.1ZM392.8,291v-22.2c0-7.4-.1-14.8-.3-22.2,0-4.2-.2-9.2-.5-15s-1.6-10.6-3.8-14.7c-1.2-2.2-3.5-4.5-6.8-7-3.3-2.4-7.9-3.6-13.8-3.6s-3.9.3-6.8.8c-2.9.5-5.9,2-8.9,4.4-5.2,4-8.3,9.8-9.2,17.2-.9,7.5-1.4,17.4-1.4,29.9v45.7c0,10.3,0,20.6.3,30.8,0,7.7,0,13.9.3,18.7.2,4.8.8,9,1.8,12.4.6,1.6,1.4,3.3,2.3,5.1.9,1.8,2.3,3.5,4.1,5.1,1.8,1.6,4,2.9,6.7,3.9,2.6,1,5.9,1.5,10,1.5s8.6-1,12.4-3c3.8-2,6.7-5.1,8.5-9.4,2.2-4.6,3.5-11.2,3.9-19.7.4-8.5.7-18.6.9-30.5.2-4.6.3-9.3.3-14.1v-14.4Z"/><path class="cls-1" d="M551,346.7c0,5-.2,10-.6,14.8-.4,4.8-1.3,9.5-2.7,13.9-1.4,4.4-3.5,8.5-6.3,12.2-2.8,3.7-6.8,6.9-11.8,9.5-3.2,1.8-6.4,3.2-9.5,4.1-3.1.9-6.1,1.6-8.9,2-2.8.4-5.3.6-7.4.6h-5c-6.5,0-13.3-.9-20.6-2.6-7.3-1.7-13.4-5-18.4-9.8-1-1-2.4-2.7-4.1-5.1-1.7-2.4-3.3-5.5-4.7-9.4-1-2.8-1.8-5.8-2.3-9.1-.5-3.2-.9-6.2-1.1-8.9-.2-2.7-.3-5.1-.3-7.3v-164.3h26.9v164.8c0,6.5.8,11.6,2.4,15.4,1.6,4,3.8,6.9,6.5,8.6,2.7,1.7,4.8,2.8,6.2,3.2,1.4.4,2.8.8,4.2,1.1,1.4.3,3.5.5,6.3.5,4,0,7.6-.5,10.7-1.4,3.1-.9,6-3.1,8.6-6.5.4-.6,1-1.5,1.8-2.7.8-1.2,1.4-2.8,1.8-4.8.4-2.2.7-5.7.9-10.4.2-4.7.3-10,.3-15.9v-151.8h26.9v159.3Z"/><path class="cls-1" d="M644.7,400.8l-41.7-185,3.6,185h-26.3v-213.5h36.6l43.2,186.9-3.6-186.9h25.7v213.5h-37.5Z"/><path class="cls-1" d="M812.2,325.8v11.3c0,3.7-.1,7.5-.3,11.3,0,1,0,3.4-.2,7.3-.1,3.8-.5,7.6-1.1,11.2-1,5.6-2.4,10.4-4.2,14.2-1.8,3.8-3.9,7-6.2,9.5-2.3,2.5-4.7,4.5-7.3,6-2.5,1.5-5,2.7-7.4,3.5-5,1.8-9.8,2.9-14.4,3.2-4.5.3-7.6.5-9.2.5-6,0-11.7-.6-16.9-1.8-5.2-1.2-10.4-3.7-15.4-7.6-1-1-2.5-2.4-4.4-4.1-1.9-1.7-3.8-4-5.6-6.8-2-3-3.6-6.3-4.8-10-1.2-3.6-2.1-7.8-2.7-12.4-.6-4.6-1-9.8-1.2-15.6-.2-5.7-.3-12.3-.3-19.8v-52.2c0-5.9,0-11.9.3-18,0-4,0-8.5.3-13.3.2-4.8.7-9.7,1.4-14.5.7-4.8,1.8-9.5,3.2-14.1,1.4-4.5,3.5-8.6,6.3-12.2,2.4-3.2,5.2-5.9,8.5-8.2,3.2-2.2,6.7-4,10.4-5.4,3.7-1.4,7.6-2.4,11.6-3,4-.6,7.9-.9,11.5-.9,9.7,0,17.3,1.6,23,4.7,5.6,3.1,9.9,6.1,12.7,8.9,4,4.2,6.9,9.5,8.6,15.9,1.7,6.3,2.6,15.4,2.6,27.1v7c0,2.4-.1,4.7-.3,7h-24.5v-11.5c0-3.8-.1-7.8-.3-11.8-.2-4.4-.7-8.3-1.5-11.5-.8-3.2-3-6.2-6.7-9.1-1.2-1-2.9-2-5.1-2.9-2.2-.9-5-1.4-8.5-1.4s-3.6.2-6,.5-4.8,1.1-7.1,2.4c-2.3,1.3-4.5,3.2-6.5,5.7-2,2.5-3.5,5.9-4.5,10.1-1.4,6-2.3,15.2-2.6,27.5-.3,12.3-.5,26.5-.5,42.6s.3,31.9.9,47.8c.2,4.2.4,8.9.6,14.1.2,5.1,1.4,9.7,3.6,13.8,1.4,2.6,3.2,4.6,5.3,6,2.1,1.4,4.2,2.5,6.3,3.2,2.1.7,4.1,1.1,5.9,1.2,1.8.1,3.1.2,3.9.2,1.2,0,3.2-.2,5.9-.6,2.7-.4,5.5-1.7,8.3-3.9,2.4-1.8,4.3-4.2,5.6-7.1,1.3-2.9,2.3-6,2.9-9.4.6-3.3,1-6.6,1.1-9.8,0-3.2.2-6.2.2-9.1v-15.7h24.8Z"/><path class="cls-1" d="M838.5,400.8v-213.5h94v23.9h-67.4v63.8h59v23.9h-59v78h69.5v23.9h-96.1Z"/><path class="cls-1" d="M207.7,471.8v47.9h44.2v17.4h-44.2v78.3h-20.4v-161.7h71.2v18.1h-50.8Z"/><path class="cls-1" d="M273.2,615.4v-161.7h20.6v143.6h47.4v18.1h-68Z"/><path class="cls-1" d="M387.4,549.9v65.5h-20.8v-65.5l-34.4-96.2h21.3l24,80.8,24-80.8h21.3l-35.5,96.2Z"/><path class="cls-1" d="M530.3,471.8v47.9h44.2v17.4h-44.2v78.3h-20.4v-161.7h71.2v18.1h-50.8Z"/><path class="cls-1" d="M595.8,615.4v-161.7h20.6v143.6h47.4v18.1h-68Z"/><path class="cls-1" d="M755.7,532.3c0,4.9-.1,9.7-.3,14.3-.2,4.7-.4,9.4-.6,14.3,0,2.4,0,4.8-.1,7.2,0,2.4-.2,4.8-.3,7.2-.3,2.9-.7,5.9-1,9-.4,3.1-1,6.2-1.8,9.2-.8,3-2,5.8-3.5,8.6-1.5,2.7-3.4,5.1-5.7,7.1-2.6,2.3-6.1,4.3-10.4,6-4.4,1.7-10.2,2.5-17.5,2.5s-3.1,0-5.5-.1c-2.4,0-5.2-.5-8.2-1.3-3.1-.8-6.1-2-9.3-3.8-3.1-1.8-5.9-4.4-8.4-7.9-.8-.9-1.6-2.2-2.4-3.9-.8-1.7-1.6-3.8-2.4-6.4-1.2-4.4-1.9-11.1-2.2-20-.2-8.9-.3-19.3-.3-31s0-14.6.1-21.9c0-7.2.2-14.5.3-21.9.3-9.3,1.1-16.6,2.4-21.8,1.3-5.2,3.4-9.6,6.3-13.3,2.4-3.2,6.2-6.2,11.3-9,5.1-2.8,12.3-4.2,21.4-4.2s3.2.1,6.1.3c2.8.2,5.9.9,9.2,2.1,3.3,1.1,6.6,2.9,9.8,5.3,3.3,2.4,6,5.8,8.1,10.2,2.1,4.3,3.4,9.1,3.9,14.4.3,2.9.6,6.5.8,10.9.2,4.4.4,8.9.5,13.6,0,4.7,0,9.3,0,13.6,0,4.4-.1,7.9-.1,10.6ZM735.1,532.3v-16.8c0-5.6,0-11.2-.2-16.8,0-3.2-.1-7-.3-11.3-.2-4.4-1.2-8.1-2.9-11.1-.9-1.7-2.6-3.4-5.2-5.3s-6-2.7-10.4-2.7-2.9.2-5.2.6c-2.2.4-4.5,1.5-6.8,3.3-4,3.1-6.3,7.4-7,13.1-.7,5.7-1,13.2-1,22.7v34.6c0,7.8,0,15.6.2,23.4,0,5.8,0,10.5.2,14.2.2,3.7.6,6.8,1.4,9.4.5,1.2,1,2.5,1.7,3.9.7,1.4,1.7,2.7,3.1,3.9,1.4,1.2,3.1,2.2,5,3,2,.8,4.5,1.1,7.6,1.1s6.5-.8,9.4-2.3c2.9-1.5,5-3.9,6.4-7.1,1.7-3.5,2.7-8.5,3-14.9.3-6.4.5-14.1.7-23.1.2-3.5.2-7.1.2-10.6v-10.9Z"/><path class="cls-1" d="M835.1,615.4l-5.7-31.1h-37.6l-5.5,31.1h-20.8l34.8-161.7h20.2l35.7,161.7h-21.1ZM810.2,483.7l-14.9,83.1h30.7l-15.8-83.1Z"/><path class="cls-1" d="M900,471.8v143.6h-19.9v-143.6h-30.7v-18.1h81.3v18.1h-30.7Z"/><path class="cls-1" d="M274.1,901.8l-38.8-100.4h-23.6v100.4h-28.2v-228.5h49.9c7.3,0,14.7.5,22.2,1.6,7.4,1.1,14.3,4.1,20.6,9.1,4.7,3.9,8.4,8.5,10.8,13.8,2.5,5.3,4.2,10.5,5.2,15.5,1,5.1,1.5,9.6,1.6,13.4.1,3.9.2,6.4.2,7.4,0,10.1-.8,19.6-2.3,28.5-1.1,6.5-2.5,11.5-4.2,15.1-1.7,3.6-3.5,6.5-5.2,8.9-3.7,4.3-7.3,7.2-11,8.7-3.7,1.5-6.4,2.5-8.1,2.9l40.8,103.6h-29.8ZM265.4,738.5c0-3.9-.1-8-.3-12.4-.2-4.3-1-8.3-2.3-12-1.5-4.1-3.6-7.3-6.3-9.4-2.7-2.2-5.8-3.7-9.2-4.6-3.5-.9-7.1-1.3-10.8-1.3h-24.8v80.3h14.9c6.3,0,11.2-.2,14.9-.5,3.7-.3,7-1,10-2.1,3.5-1.5,6.2-3.8,8.1-6.8,1.9-3,3.3-6.3,4.2-9.9.9-3.6,1.3-7.3,1.5-11.1.1-3.8.2-7.2.2-10.2Z"/><path class="cls-1" d="M324.9,901.8v-228.5h100.7v25.6h-72.2v68.3h63.1v25.6h-63.1v83.5h74.5v25.6h-102.9Z"/><path class="cls-1" d="M562.9,742.5c0,.4,0,2.6.2,6.5.1,3.9-.2,8.4-.8,13.6-.6,5.2-1.8,10.6-3.6,16.3-1.7,5.7-4.3,10.6-7.8,14.7-2.6,3.2-5.7,5.8-9.4,7.8-3.7,1.9-7.6,3.4-11.7,4.4-4.1,1-8.2,1.6-12.3,1.8-4.1.2-8.1.3-12,.3h-24v93.9h-28.5v-228.5h59.2c5.6,0,10.4.4,14.4,1.1,4,.8,7.5,1.8,10.5,3.2,3,1.4,5.6,3,7.8,4.9,2.2,1.8,4.1,3.8,5.8,6,3.2,4.1,5.7,8.3,7.4,12.6,1.7,4.3,2.9,8.8,3.6,13.4.6,4.6,1,9.3,1,13.9v14.1ZM535,744.1v-11.1c0-3.7-.2-7.4-.6-11.1-.6-5.7-2.1-10.1-4.4-13.2-2.3-3.2-5.1-5.4-8.6-6.8-3.5-1.4-7.3-2.3-11.7-2.6-4.3-.3-8.7-.5-13.3-.5h-14.9v84.5h19.1c3.2,0,6.4,0,9.5-.2,3.1-.1,6-.5,8.7-1.3,2.7-.8,5.2-2.1,7.6-3.9,2.4-1.8,4.3-4.5,5.8-8,1.3-2.8,2-6.2,2.3-10.1.2-3.9.3-9.1.3-15.7Z"/><path class="cls-1" d="M588.1,901.8v-228.5h100.7v25.6h-72.2v68.3h63.1v25.6h-63.1v83.5h74.5v25.6h-102.9Z"/><path class="cls-1" d="M798.5,901.8l-8.1-44h-53.1l-7.8,44h-29.5l49.2-228.5h28.5l50.5,228.5h-29.8ZM763.2,715.6l-21,117.5h43.4l-22.3-117.5Z"/><path class="cls-1" d="M890.1,698.8v203h-28.2v-203h-43.4v-25.6h114.9v25.6h-43.4Z"/><circle class="cls-1" cx="453.8" cy="535.3" r="14.9"/></svg>